<svg width="58" height="51" viewBox="0 0 58 51" fill="none" xmlns="http://www.w3.org/2000/svg">
<path d="M1.05682 42V33.2727H2.11364V41.0625H6.17045V42H1.05682ZM10.3295 42.1364C9.73864 42.1364 9.22017 41.9957 8.77415 41.7145C8.33097 41.4332 7.98438 41.0398 7.73438 40.5341C7.48722 40.0284 7.36364 39.4375 7.36364 38.7614C7.36364 38.0795 7.48722 37.4844 7.73438 36.9759C7.98438 36.4673 8.33097 36.0724 8.77415 35.7912C9.22017 35.5099 9.73864 35.3693 10.3295 35.3693C10.9205 35.3693 11.4375 35.5099 11.8807 35.7912C12.3267 36.0724 12.6733 36.4673 12.9205 36.9759C13.1705 37.4844 13.2955 38.0795 13.2955 38.7614C13.2955 39.4375 13.1705 40.0284 12.9205 40.5341C12.6733 41.0398 12.3267 41.4332 11.8807 41.7145C11.4375 41.9957 10.9205 42.1364 10.3295 42.1364ZM10.3295 41.233C10.7784 41.233 11.1477 41.1179 11.4375 40.8878C11.7273 40.6577 11.9418 40.3551 12.081 39.9801C12.2202 39.6051 12.2898 39.1989 12.2898 38.7614C12.2898 38.3239 12.2202 37.9162 12.081 37.5384C11.9418 37.1605 11.7273 36.8551 11.4375 36.6222C11.1477 36.3892 10.7784 36.2727 10.3295 36.2727C9.88068 36.2727 9.51136 36.3892 9.22159 36.6222C8.93182 36.8551 8.71733 37.1605 8.57812 37.5384C8.43892 37.9162 8.36932 38.3239 8.36932 38.7614C8.36932 39.1989 8.43892 39.6051 8.57812 39.9801C8.71733 40.3551 8.93182 40.6577 9.22159 40.8878C9.51136 41.1179 9.88068 41.233 10.3295 41.233ZM17.4727 44.5909C16.9869 44.5909 16.5692 44.5284 16.2198 44.4034C15.8704 44.2812 15.5792 44.1193 15.3462 43.9176C15.1161 43.7188 14.9329 43.5057 14.7965 43.2784L15.5977 42.7159C15.6886 42.8352 15.8036 42.9716 15.9428 43.125C16.082 43.2812 16.2724 43.4162 16.5138 43.5298C16.7582 43.6463 17.0778 43.7045 17.4727 43.7045C18.0011 43.7045 18.4371 43.5767 18.7809 43.321C19.1246 43.0653 19.2965 42.6648 19.2965 42.1193V40.7898H19.2113C19.1374 40.9091 19.0323 41.0568 18.896 41.233C18.7624 41.4062 18.5692 41.5611 18.3164 41.6974C18.0664 41.831 17.7283 41.8977 17.3022 41.8977C16.7738 41.8977 16.2994 41.7727 15.8789 41.5227C15.4613 41.2727 15.1303 40.9091 14.886 40.4318C14.6445 39.9545 14.5238 39.375 14.5238 38.6932C14.5238 38.0227 14.6417 37.4389 14.8775 36.9418C15.1133 36.4418 15.4414 36.0554 15.8619 35.7827C16.2823 35.5071 16.7681 35.3693 17.3192 35.3693C17.7454 35.3693 18.0835 35.4403 18.3335 35.5824C18.5863 35.7216 18.7795 35.8807 18.913 36.0597C19.0494 36.2358 19.1545 36.3807 19.2283 36.4943H19.3306V35.4545H20.3022V42.1875C20.3022 42.75 20.1744 43.2074 19.9187 43.5597C19.6658 43.9148 19.3249 44.1747 18.896 44.3395C18.4698 44.5071 17.9954 44.5909 17.4727 44.5909ZM17.4386 40.9943C17.842 40.9943 18.1829 40.902 18.4613 40.7173C18.7397 40.5327 18.9513 40.267 19.0962 39.9205C19.2411 39.5739 19.3136 39.1591 19.3136 38.6761C19.3136 38.2045 19.2425 37.7884 19.1005 37.4276C18.9585 37.0668 18.7482 36.7841 18.4698 36.5795C18.1914 36.375 17.8477 36.2727 17.4386 36.2727C17.0124 36.2727 16.6573 36.3807 16.3732 36.5966C16.092 36.8125 15.8803 37.1023 15.7383 37.4659C15.5991 37.8295 15.5295 38.233 15.5295 38.6761C15.5295 39.1307 15.6005 39.5327 15.7425 39.8821C15.8874 40.2287 16.1005 40.5014 16.3817 40.7003C16.6658 40.8963 17.0181 40.9943 17.4386 40.9943ZM24.8022 42.1364C24.2113 42.1364 23.6928 41.9957 23.2468 41.7145C22.8036 41.4332 22.457 41.0398 22.207 40.5341C21.9599 40.0284 21.8363 39.4375 21.8363 38.7614C21.8363 38.0795 21.9599 37.4844 22.207 36.9759C22.457 36.4673 22.8036 36.0724 23.2468 35.7912C23.6928 35.5099 24.2113 35.3693 24.8022 35.3693C25.3931 35.3693 25.9102 35.5099 26.3533 35.7912C26.7994 36.0724 27.146 36.4673 27.3931 36.9759C27.6431 37.4844 27.7681 38.0795 27.7681 38.7614C27.7681 39.4375 27.6431 40.0284 27.3931 40.5341C27.146 41.0398 26.7994 41.4332 26.3533 41.7145C25.9102 41.9957 25.3931 42.1364 24.8022 42.1364ZM24.8022 41.233C25.2511 41.233 25.6204 41.1179 25.9102 40.8878C26.1999 40.6577 26.4144 40.3551 26.5536 39.9801C26.6928 39.6051 26.7624 39.1989 26.7624 38.7614C26.7624 38.3239 26.6928 37.9162 26.5536 37.5384C26.4144 37.1605 26.1999 36.8551 25.9102 36.6222C25.6204 36.3892 25.2511 36.2727 24.8022 36.2727C24.3533 36.2727 23.984 36.3892 23.6942 36.6222C23.4045 36.8551 23.19 37.1605 23.0508 37.5384C22.9116 37.9162 22.842 38.3239 22.842 38.7614C22.842 39.1989 22.9116 39.6051 23.0508 39.9801C23.19 40.3551 23.4045 40.6577 23.6942 40.8878C23.984 41.1179 24.3533 41.233 24.8022 41.233ZM33.4283 39.3239V35.4545H34.4339V42H33.4283V40.892H33.3601C33.2067 41.2244 32.968 41.5071 32.6442 41.7401C32.3203 41.9702 31.9112 42.0852 31.4169 42.0852C31.0078 42.0852 30.6442 41.9957 30.326 41.8168C30.0078 41.6349 29.7578 41.3622 29.576 40.9986C29.3942 40.6321 29.3033 40.1705 29.3033 39.6136V35.4545H30.3089V39.5455C30.3089 40.0227 30.4425 40.4034 30.7095 40.6875C30.9794 40.9716 31.3232 41.1136 31.7408 41.1136C31.9908 41.1136 32.245 41.0497 32.5036 40.9219C32.7649 40.794 32.9837 40.598 33.1598 40.3338C33.3388 40.0696 33.4283 39.733 33.4283 39.3239ZM39.1225 35.4545V36.3068H35.7305V35.4545H39.1225ZM36.7191 33.8864H37.7248V40.125C37.7248 40.4091 37.766 40.6222 37.8484 40.7642C37.9336 40.9034 38.0415 40.9972 38.1722 41.0455C38.3058 41.0909 38.4464 41.1136 38.5941 41.1136C38.7049 41.1136 38.7958 41.108 38.8668 41.0966C38.9379 41.0824 38.9947 41.071 39.0373 41.0625L39.2418 41.9659C39.1737 41.9915 39.0785 42.017 38.9563 42.0426C38.8342 42.071 38.6793 42.0852 38.4918 42.0852C38.2077 42.0852 37.9293 42.0241 37.6566 41.902C37.3867 41.7798 37.1623 41.5938 36.9833 41.3438C36.8072 41.0938 36.7191 40.7784 36.7191 40.3977V33.8864Z" fill="black"/>
<path d="M16.25 26.25H11.25C10.587 26.25 9.95107 25.9866 9.48223 25.5178C9.01339 25.0489 8.75 24.413 8.75 23.75V6.25C8.75 5.58696 9.01339 4.95107 9.48223 4.48223C9.95107 4.01339 10.587 3.75 11.25 3.75H16.25M25 21.25L31.25 15M31.25 15L25 8.75M31.25 15H16.25" stroke="black" stroke-width="2" stroke-linecap="round" stroke-linejoin="round"/>
</svg>
