<svg width="143" height="143" viewBox="0 0 143 143" fill="none" xmlns="http://www.w3.org/2000/svg">
<path d="M143 71.5C143 110.988 110.988 143 71.5 143C32.0116 143 0 110.988 0 71.5C0 32.0116 32.0116 0 71.5 0C110.988 0 143 32.0116 143 71.5Z" fill="#D9D9D9"/>
<path d="M72.9583 76.25H63.5833C61.3732 76.25 59.2536 77.128 57.6908 78.6908C56.128 80.2536 55.25 82.3732 55.25 84.5833V88.75M93.5375 79.6375C94.3674 78.8076 94.8336 77.682 94.8336 76.5083C94.8336 75.3347 94.3674 74.2091 93.5375 73.3792C92.7076 72.5493 91.582 72.083 90.4083 72.083C89.2347 72.083 88.1091 72.5493 87.2792 73.3792L78.925 81.7375C78.4297 82.2325 78.0671 82.8445 77.8708 83.5167L76.1271 89.4958C76.0748 89.6751 76.0717 89.8651 76.118 90.046C76.1644 90.2269 76.2585 90.392 76.3905 90.5241C76.5226 90.6561 76.6877 90.7502 76.8686 90.7966C77.0495 90.8429 77.2395 90.8398 77.4188 90.7875L83.3979 89.0438C84.0701 88.8475 84.682 88.4849 85.1771 87.9896L93.5375 79.6375ZM78.1667 59.5833C78.1667 64.1857 74.4357 67.9167 69.8333 67.9167C65.231 67.9167 61.5 64.1857 61.5 59.5833C61.5 54.981 65.231 51.25 69.8333 51.25C74.4357 51.25 78.1667 54.981 78.1667 59.5833Z" stroke="black" stroke-width="2" stroke-linecap="round" stroke-linejoin="round"/>
</svg>
